<?xml version="1.0" standalone="no"?>
<!DOCTYPE svg PUBLIC "-//W3C//DTD SVG 20010904//EN"
 "http://www.w3.org/TR/2001/REC-SVG-20010904/DTD/svg10.dtd">
<svg version="1.0" xmlns="http://www.w3.org/2000/svg"
 width="876.000000pt" height="876.000000pt" viewBox="0 0 876.000000 876.000000"
 preserveAspectRatio="xMidYMid meet">
<metadata>
Created by potrace 1.11, written by Peter Selinger 2001-2013
</metadata>
<g transform="translate(0.000000,876.000000) scale(0.100000,-0.100000)"
fill="#000000" stroke="none">
<path d="M1710 8736 c-47 -27 -56 -61 -56 -215 1 -134 0 -141 -19 -142 -11 0
-105 -1 -210 -3 -208 -2 -226 -6 -266 -60 l-24 -31 -3 -711 -2 -710 22 -35
c44 -64 76 -72 297 -72 108 0 198 -3 201 -7 4 -6 5 -458 1 -480 -1 -3 -94 -5
-209 -5 -234 -1 -252 -5 -291 -75 -21 -37 -21 -46 -21 -734 0 -772 -4 -729 66
-782 l36 -28 206 0 c114 0 209 -4 212 -7 4 -6 5 -402 1 -470 -1 -14 -26 -16
-198 -17 -109 0 -205 -2 -214 -4 -29 -7 -70 -39 -90 -71 -18 -31 -19 -55 -19
-735 l1 -703 22 -34 c43 -65 60 -70 277 -72 107 0 202 -2 210 -2 13 -1 15 -34
14 -242 -1 -263 -1 -262 -58 -249 -18 4 -42 3 -54 -1 -12 -5 -22 -5 -22 -1 0
9 -104 7 -119 -2 -6 -4 -11 -4 -11 1 0 11 -128 5 -168 -8 -18 -6 -45 -27 -60
-47 l-27 -35 -3 -705 -2 -705 24 -42 c40 -68 59 -73 287 -72 110 0 202 -3 206
-6 3 -4 7 -82 7 -174 2 -183 8 -207 62 -231 19 -9 691 -12 2665 -12 2467 0
2643 1 2670 17 48 29 54 55 54 237 l0 166 195 1 c107 0 206 2 218 5 31 5 56
23 84 59 l23 30 3 695 c2 478 0 707 -8 732 -13 45 -66 89 -112 94 -18 1 -33 3
-33 4 0 1 -46 2 -103 3 -56 1 -102 -2 -102 -6 0 -4 -8 -4 -17 0 -21 10 -94 10
-109 1 -5 -4 -16 -3 -24 2 -22 14 -22 490 0 491 8 0 103 2 211 2 150 2 200 5
212 16 10 7 17 10 17 6 0 -5 10 3 21 16 50 56 49 42 49 782 l0 694 -23 33
c-45 68 -64 72 -295 74 l-206 1 -1 238 c0 152 3 241 10 245 5 4 96 7 201 7
165 0 196 3 232 19 23 11 42 23 42 27 0 4 8 15 17 25 17 16 18 67 21 722 2
695 2 705 -18 747 -35 72 -61 79 -290 81 -107 1 -200 2 -205 3 -7 1 -10 87
-10 244 l0 244 205 0 c229 0 245 4 293 66 l26 35 0 703 c0 779 4 738 -64 791
-28 22 -36 23 -238 25 -115 0 -212 4 -215 8 -4 4 -8 64 -8 133 -1 70 -2 136
-3 148 -1 24 -27 56 -58 72 -16 9 -682 12 -2665 12 -2212 -1 -2647 -3 -2668
-14z m-61 -664 c4 -8 7 -954 2 -1008 -1 -15 -221 -15 -222 0 -1 6 -2 236 -3
511 -1 389 1 501 11 505 23 9 205 3 212 -8z m5677 5 c7 -4 12 -984 5 -1018 -1
-7 -221 -7 -222 0 -5 26 -3 1017 2 1021 9 7 204 4 215 -3z m-5671 -2607 c0
-272 -1 -503 -3 -512 -4 -16 -17 -17 -116 -15 l-111 2 -1 505 c0 278 2 509 4
513 2 4 54 6 115 5 l111 -3 1 -495z m5676 488 c1 -7 2 -239 3 -516 l1 -503
-115 3 -115 3 -1 505 c0 278 1 508 3 513 3 4 53 7 114 7 80 0 109 -3 110 -12z
m-5677 -2611 c1 -280 -2 -511 -6 -513 -11 -7 -209 -6 -216 1 -4 4 -7 235 -7
515 l0 508 114 -1 115 -2 0 -508z m5677 485 c3 -68 4 -979 1 -992 -2 -12 -22
-15 -109 -13 -58 2 -109 5 -112 9 -6 5 -10 1003 -4 1015 1 3 52 7 113 7 l110
1 1 -27z m-5680 -2097 c0 -5 1 -236 2 -513 1 -328 -1 -502 -8 -503 -70 -6
-208 -2 -214 6 -6 8 -8 992 -2 1015 2 10 221 6 222 -5z m5679 6 c8 -2 7 -1015
-1 -1021 -4 -3 -56 -5 -115 -5 l-109 0 0 505 c-1 278 0 510 2 516 3 7 42 10
111 9 59 -1 109 -3 112 -4z"/>
</g>
</svg>
